<svg width="215" height="54" viewBox="0 0 215 54" fill="none" xmlns="http://www.w3.org/2000/svg">
    <path d="M18.0459 0.180974C17.956 0.285441 17.0575 1.47934 16.0391 2.82248C10.4681 10.1351 6.17005 18.0299 3.14493 26.5364C2.45604 28.4765 1.33285 32.2074 0.97343 33.7744C0.61401 35.3116 0 38.0576 0 38.1322C0 38.162 1.12319 38.162 2.50097 38.1471L4.98696 38.1023L5.31643 36.6846C7.5029 27.1632 11.2918 18.4477 16.8628 10.0904C17.8961 8.55322 18.7947 7.25485 18.8845 7.19515C19.214 7.00115 24.6502 12.7916 27.0763 15.9256L27.9749 17.0747L27.1213 18.4178C23.4222 24.1486 20.472 30.7598 18.7947 37.0577C17.4918 41.9377 16.6232 48.161 16.6232 52.5187V53.9962H19.0043C21.7899 53.9962 21.5652 54.1902 21.5652 51.8173C21.5652 50.1458 21.8947 46.594 22.2391 44.5196C22.3589 43.7734 22.4638 43.1316 22.4638 43.057C22.4638 42.9227 39.5362 42.9227 39.5362 43.057C39.5362 43.1316 39.6411 43.7734 39.7609 44.5196C40.1203 46.6537 40.4348 50.1608 40.4348 51.9218C40.4348 52.8023 40.4797 53.6231 40.5246 53.7574C40.5995 53.9663 40.9739 53.9962 43.0256 53.9962H45.4217L45.3319 51.3397C44.8976 39.6544 41.3483 28.4317 34.8787 18.4178L34.0251 17.0747L34.9237 15.9256C37.3498 12.7916 42.786 7.00115 43.1155 7.19515C43.2053 7.25485 44.1039 8.55322 45.1372 10.0904C50.7082 18.4477 54.4971 27.1632 56.6836 36.6846L57.013 38.1023L59.499 38.1471C60.8768 38.162 62 38.162 62 38.1322C62 38.0725 61.4159 35.416 61.0266 33.7744C60.5773 31.8194 59.2744 27.6706 58.301 25.044C55.9498 18.7611 52.9246 12.8811 49.0908 7.16531C48.0425 5.61324 45.1372 1.65843 43.9242 0.151128C43.7744 -0.0428809 43.5198 0.121282 42.2019 1.24056C39.8957 3.22542 34.5643 8.58307 32.7372 10.7918C31.8536 11.8514 31.0749 12.7319 31 12.7319C30.9251 12.7319 30.1464 11.8514 29.2628 10.7918C27.2111 8.32937 22.9729 4.03131 20.3971 1.77782C19.2889 0.822698 18.3454 0.031737 18.3005 0.00188947C18.2406 -0.0130343 18.1208 0.0615843 18.0459 0.180974ZM32.0483 23.1785C34.2048 26.8647 36.1816 31.2075 37.4246 34.9982C37.829 36.2219 38.2034 37.4308 38.2633 37.6845L38.3681 38.1769H31H23.6319L23.7367 37.6845C23.9614 36.6398 25.3691 32.6253 26.2227 30.6255C27.6304 27.2975 30.6556 21.6115 31 21.6115C31.0599 21.6115 31.5391 22.313 32.0483 23.1785Z" fill="white"/>
    <g clip-path="url(#clip0_107_247)">
        <path d="M75.08 33V6.92H81.52L85.72 18.52C85.9867 19.2933 86.24 20.0933 86.48 20.92C86.72 21.72 86.9733 22.52 87.24 23.32H87.4C87.6667 22.52 87.9067 21.72 88.12 20.92C88.36 20.0933 88.6133 19.2933 88.88 18.52L92.96 6.92H99.4V33H94.04V23.44C94.04 22.5867 94.08 21.5867 94.16 20.44C94.2667 19.2667 94.3733 18.1067 94.48 16.96C94.6133 15.7867 94.72 14.7733 94.8 13.92H94.64L92.52 20.76L88.8 30.72H85.56L81.84 20.76L79.76 13.92H79.6C79.7067 14.7733 79.8133 15.7867 79.92 16.96C80.0267 18.1067 80.12 19.2667 80.2 20.44C80.3067 21.5867 80.36 22.5867 80.36 23.44V33H75.08ZM113.949 33.48C112.055 33.48 110.349 33.0667 108.829 32.24C107.309 31.4133 106.109 30.2267 105.229 28.68C104.349 27.1333 103.909 25.2667 103.909 23.08C103.909 20.9467 104.349 19.1067 105.229 17.56C106.135 15.9867 107.295 14.7867 108.709 13.96C110.149 13.1067 111.669 12.68 113.269 12.68C115.135 12.68 116.695 13.0933 117.949 13.92C119.229 14.7467 120.175 15.88 120.789 17.32C121.402 18.76 121.709 20.3867 121.709 22.2C121.709 22.7067 121.682 23.2133 121.629 23.72C121.575 24.2 121.522 24.56 121.469 24.8H108.509L108.429 20.92H116.709C116.709 19.8 116.442 18.8933 115.909 18.2C115.402 17.5067 114.562 17.16 113.389 17.16C112.749 17.16 112.109 17.3467 111.469 17.72C110.829 18.0933 110.295 18.7067 109.869 19.56C109.469 20.4133 109.295 21.5867 109.349 23.08C109.375 24.6 109.655 25.8 110.189 26.68C110.722 27.5333 111.389 28.1333 112.189 28.48C113.015 28.8267 113.869 29 114.749 29C115.522 29 116.255 28.8933 116.949 28.68C117.669 28.4667 118.389 28.1467 119.109 27.72L120.989 31.24C119.975 31.96 118.842 32.52 117.589 32.92C116.335 33.2933 115.122 33.48 113.949 33.48ZM132.852 33.48C130.398 33.48 128.425 32.56 126.932 30.72C125.465 28.8533 124.732 26.3067 124.732 23.08C124.732 20.92 125.118 19.0667 125.892 17.52C126.692 15.9733 127.718 14.7867 128.972 13.96C130.252 13.1067 131.585 12.68 132.972 12.68C134.065 12.68 134.985 12.8667 135.732 13.24C136.478 13.6133 137.185 14.12 137.852 14.76L137.612 11.76V5H143.492V33H138.692L138.292 31.04H138.132C137.438 31.7333 136.625 32.32 135.692 32.8C134.758 33.2533 133.812 33.48 132.852 33.48ZM134.372 28.68C135.012 28.68 135.585 28.5467 136.092 28.28C136.625 28.0133 137.132 27.5467 137.612 26.88V18.76C137.105 18.28 136.572 17.9467 136.012 17.76C135.452 17.5733 134.892 17.48 134.332 17.48C133.692 17.48 133.105 17.68 132.572 18.08C132.038 18.48 131.598 19.0933 131.252 19.92C130.932 20.72 130.772 21.76 130.772 23.04C130.772 24.96 131.092 26.3867 131.732 27.32C132.372 28.2267 133.252 28.68 134.372 28.68ZM148.702 33V13.16H154.582V33H148.702ZM151.622 10.24C150.635 10.24 149.835 9.96 149.222 9.4C148.608 8.84 148.302 8.09333 148.302 7.16C148.302 6.22666 148.608 5.48 149.222 4.92C149.835 4.36 150.635 4.08 151.622 4.08C152.608 4.08 153.408 4.36 154.022 4.92C154.635 5.48 154.942 6.22666 154.942 7.16C154.942 8.09333 154.635 8.84 154.022 9.4C153.408 9.96 152.608 10.24 151.622 10.24ZM168.516 33.48C166.65 33.48 164.956 33.08 163.436 32.28C161.943 31.4533 160.756 30.2667 159.876 28.72C159.023 27.1467 158.596 25.2667 158.596 23.08C158.596 20.8933 159.076 19.0267 160.036 17.48C160.996 15.9067 162.263 14.72 163.836 13.92C165.41 13.0933 167.103 12.68 168.916 12.68C170.143 12.68 171.236 12.88 172.196 13.28C173.183 13.6533 174.023 14.16 174.716 14.8L171.956 18.44C171.583 18.12 171.183 17.8667 170.756 17.68C170.33 17.4933 169.823 17.4 169.236 17.4C168.33 17.4 167.53 17.64 166.836 18.12C166.143 18.5733 165.596 19.2267 165.196 20.08C164.823 20.9333 164.636 21.9333 164.636 23.08C164.636 24.2267 164.823 25.2267 165.196 26.08C165.596 26.9333 166.13 27.5867 166.796 28.04C167.49 28.4933 168.263 28.72 169.116 28.72C169.783 28.72 170.41 28.6 170.996 28.36C171.583 28.12 172.13 27.8 172.636 27.4L174.956 31.04C174.13 31.7867 173.156 32.3867 172.036 32.84C170.916 33.2667 169.743 33.48 168.516 33.48ZM175.627 33L183.787 6.92H190.867L199.027 33H192.787L189.387 19.8C189.014 18.4933 188.654 17.1067 188.307 15.64C187.961 14.1733 187.614 12.76 187.267 11.4H187.107C186.814 12.76 186.481 14.1733 186.107 15.64C185.761 17.1067 185.414 18.4933 185.067 19.8L181.627 33H175.627ZM180.987 26.8V22.2H193.547V26.8H180.987ZM201.397 33V13.16H206.197L206.597 16.6H206.757C207.477 15.2933 208.33 14.32 209.317 13.68C210.33 13.0133 211.357 12.68 212.397 12.68C212.957 12.68 213.424 12.72 213.797 12.8C214.17 12.8533 214.49 12.9467 214.757 13.08L213.637 18.08C213.317 18 213.01 17.9467 212.717 17.92C212.424 17.8667 212.064 17.84 211.637 17.84C210.89 17.84 210.104 18.1067 209.277 18.64C208.477 19.1733 207.81 20.1333 207.277 21.52V33H201.397Z" fill="white"/>
    </g>
    <g clip-path="url(#clip1_107_247)">
        <path d="M106.348 48.14C105.667 48.14 105.041 48.0187 104.472 47.776C103.903 47.5333 103.408 47.188 102.988 46.74C102.568 46.2827 102.241 45.746 102.008 45.13C101.784 44.514 101.672 43.8373 101.672 43.1C101.672 42.4 101.793 41.7513 102.036 41.154C102.288 40.5473 102.633 40.0153 103.072 39.558C103.511 39.1007 104.019 38.746 104.598 38.494C105.177 38.242 105.802 38.116 106.474 38.116C106.95 38.116 107.412 38.1907 107.86 38.34C108.317 38.48 108.728 38.6807 109.092 38.942C109.465 39.194 109.769 39.4833 110.002 39.81L108.994 40.86C108.593 40.4493 108.182 40.1413 107.762 39.936C107.342 39.7307 106.913 39.628 106.474 39.628C106.017 39.628 105.587 39.7167 105.186 39.894C104.794 40.062 104.449 40.3 104.15 40.608C103.861 40.916 103.632 41.2847 103.464 41.714C103.296 42.134 103.212 42.596 103.212 43.1C103.212 43.632 103.291 44.1173 103.45 44.556C103.618 44.9853 103.851 45.354 104.15 45.662C104.449 45.97 104.803 46.208 105.214 46.376C105.634 46.5347 106.096 46.614 106.6 46.614C106.908 46.614 107.211 46.572 107.51 46.488C107.809 46.404 108.089 46.2827 108.35 46.124C108.611 45.9653 108.849 45.7787 109.064 45.564L109.82 46.796C109.605 47.048 109.311 47.2767 108.938 47.482C108.574 47.6873 108.163 47.8507 107.706 47.972C107.258 48.084 106.805 48.14 106.348 48.14ZM111.874 48V38.2H118.048V39.656H113.386V46.544H118.048V48H111.874ZM112.56 43.702V42.246H117.278V43.702H112.56ZM120.474 48V38.2H124.646C125.206 38.2 125.719 38.34 126.186 38.62C126.662 38.8907 127.04 39.264 127.32 39.74C127.6 40.2067 127.74 40.734 127.74 41.322C127.74 41.854 127.6 42.3487 127.32 42.806C127.04 43.2633 126.666 43.632 126.2 43.912C125.733 44.1827 125.215 44.318 124.646 44.318H121.986V48H120.474ZM126.298 48L123.806 43.576L125.36 43.226L128.132 48.014L126.298 48ZM121.986 42.862H124.786C125.056 42.862 125.299 42.7967 125.514 42.666C125.728 42.526 125.896 42.3393 126.018 42.106C126.139 41.8633 126.2 41.5973 126.2 41.308C126.2 40.9813 126.12 40.6967 125.962 40.454C125.812 40.202 125.598 40.006 125.318 39.866C125.047 39.726 124.739 39.656 124.394 39.656H121.986V42.862ZM134.047 48.14C133.366 48.14 132.741 48.0187 132.171 47.776C131.602 47.5333 131.107 47.188 130.687 46.74C130.267 46.2827 129.941 45.746 129.707 45.13C129.483 44.514 129.371 43.8373 129.371 43.1C129.371 42.4 129.493 41.7513 129.735 41.154C129.987 40.5473 130.333 40.0153 130.771 39.558C131.21 39.1007 131.719 38.746 132.297 38.494C132.876 38.242 133.501 38.116 134.173 38.116C134.649 38.116 135.111 38.1907 135.559 38.34C136.017 38.48 136.427 38.6807 136.791 38.942C137.165 39.194 137.468 39.4833 137.701 39.81L136.693 40.86C136.292 40.4493 135.881 40.1413 135.461 39.936C135.041 39.7307 134.612 39.628 134.173 39.628C133.716 39.628 133.287 39.7167 132.885 39.894C132.493 40.062 132.148 40.3 131.849 40.608C131.56 40.916 131.331 41.2847 131.163 41.714C130.995 42.134 130.911 42.596 130.911 43.1C130.911 43.632 130.991 44.1173 131.149 44.556C131.317 44.9853 131.551 45.354 131.849 45.662C132.148 45.97 132.503 46.208 132.913 46.376C133.333 46.5347 133.795 46.614 134.299 46.614C134.607 46.614 134.911 46.572 135.209 46.488C135.508 46.404 135.788 46.2827 136.049 46.124C136.311 45.9653 136.549 45.7787 136.763 45.564L137.519 46.796C137.305 47.048 137.011 47.2767 136.637 47.482C136.273 47.6873 135.863 47.8507 135.405 47.972C134.957 48.084 134.505 48.14 134.047 48.14ZM138.551 48L142.345 38.2H143.885L147.651 48H146.041L143.801 42.092C143.773 42.0267 143.717 41.868 143.633 41.616C143.558 41.364 143.47 41.084 143.367 40.776C143.264 40.468 143.171 40.188 143.087 39.936C143.003 39.6747 142.947 39.5067 142.919 39.432L143.241 39.418C143.185 39.5767 143.115 39.7773 143.031 40.02C142.956 40.2627 142.872 40.5193 142.779 40.79C142.695 41.0607 142.611 41.3173 142.527 41.56C142.443 41.7933 142.373 41.9893 142.317 42.148L140.091 48H138.551ZM140.231 45.564L140.791 44.108H145.243L145.887 45.564H140.231ZM155.162 48V39.656H152.418V38.2H159.502V39.656H156.674V48H155.162ZM165.174 48.084C164.418 48.084 163.741 47.9207 163.144 47.594C162.547 47.258 162.075 46.8007 161.73 46.222C161.394 45.634 161.226 44.9713 161.226 44.234V38.186H162.738V44.108C162.738 44.584 162.85 45.0133 163.074 45.396C163.298 45.7693 163.592 46.068 163.956 46.292C164.329 46.516 164.735 46.628 165.174 46.628C165.641 46.628 166.061 46.516 166.434 46.292C166.817 46.068 167.12 45.7693 167.344 45.396C167.568 45.0133 167.68 44.584 167.68 44.108V38.186H169.122V44.234C169.122 44.9713 168.95 45.634 168.604 46.222C168.268 46.8007 167.802 47.258 167.204 47.594C166.607 47.9207 165.93 48.084 165.174 48.084ZM174.225 48V43.114L174.323 43.8L170.361 38.2H172.181L175.205 42.54L174.855 42.498L177.585 38.2H179.321L175.527 43.954L175.737 43.002V48H174.225ZM184.445 48.14C183.754 48.14 183.115 48.014 182.527 47.762C181.948 47.51 181.439 47.16 181.001 46.712C180.571 46.2547 180.235 45.7227 179.993 45.116C179.759 44.5 179.643 43.828 179.643 43.1C179.643 42.372 179.759 41.7047 179.993 41.098C180.235 40.482 180.571 39.95 181.001 39.502C181.439 39.0447 181.948 38.69 182.527 38.438C183.115 38.186 183.754 38.06 184.445 38.06C185.135 38.06 185.77 38.186 186.349 38.438C186.937 38.69 187.445 39.0447 187.875 39.502C188.313 39.9593 188.649 40.496 188.883 41.112C189.125 41.7187 189.247 42.3813 189.247 43.1C189.247 43.8187 189.125 44.486 188.883 45.102C188.649 45.7087 188.313 46.2407 187.875 46.698C187.445 47.1553 186.937 47.51 186.349 47.762C185.77 48.014 185.135 48.14 184.445 48.14ZM184.445 46.67C184.921 46.67 185.355 46.5813 185.747 46.404C186.148 46.2267 186.493 45.9793 186.783 45.662C187.072 45.3353 187.296 44.9573 187.455 44.528C187.623 44.0893 187.707 43.6133 187.707 43.1C187.707 42.5867 187.623 42.1153 187.455 41.686C187.296 41.2473 187.072 40.8693 186.783 40.552C186.493 40.2253 186.148 39.9733 185.747 39.796C185.355 39.6187 184.921 39.53 184.445 39.53C183.969 39.53 183.53 39.6187 183.129 39.796C182.737 39.9733 182.391 40.2207 182.093 40.538C181.803 40.8553 181.579 41.2333 181.421 41.672C181.262 42.1013 181.183 42.5773 181.183 43.1C181.183 43.7907 181.323 44.4067 181.603 44.948C181.883 45.48 182.265 45.9 182.751 46.208C183.245 46.516 183.81 46.67 184.445 46.67Z" fill="white"/>
    </g>
    <defs>
        <clipPath id="clip0_107_247">
            <rect width="140" height="30" fill="white" transform="translate(75 4)"/>
        </clipPath>
        <clipPath id="clip1_107_247">
            <rect width="89" height="11" fill="white" transform="translate(101 38)"/>
        </clipPath>
    </defs>
</svg>