<svg version="1.0" xmlns="http://www.w3.org/2000/svg"
 width="750.000000pt" height="1116.000000pt" viewBox="0 0 750.000000 1116.000000"
 preserveAspectRatio="xMidYMid meet">
<g transform="translate(0.000000,1116.000000) scale(0.100000,-0.100000)"
fill="#000000" stroke="none">
<path d="M0 5515 l0 -5515 3750 0 3750 0 0 1323 0 1323 -30 182 c-139 843
-390 1444 -754 1807 -186 185 -391 287 -657 326 -136 20 -402 7 -609 -30 -96
-17 -251 -44 -345 -60 -410 -72 -680 -63 -972 34 -292 97 -521 275 -688 534
-126 195 -232 480 -375 1006 -185 681 -302 933 -534 1152 -151 142 -272 201
-721 353 -415 141 -540 196 -730 324 -109 73 -291 253 -357 352 -198 298 -248
532 -248 1165 0 278 -11 417 -45 569 -55 249 -175 458 -348 607 -28 24 -60 49
-69 54 -17 9 -18 -256 -18 -5506z"/>
</g>
</svg>
