<?xml version="1.0" standalone="no"?>
<!DOCTYPE svg PUBLIC "-//W3C//DTD SVG 20010904//EN"
 "http://www.w3.org/TR/2001/REC-SVG-20010904/DTD/svg10.dtd">
<svg version="1.0" xmlns="http://www.w3.org/2000/svg"
 width="100.000000pt" height="100.000000pt" viewBox="0 0 100.000000 100.000000"
 preserveAspectRatio="xMidYMid meet">

<g transform="translate(0.000000,100.000000) scale(0.100000,-0.100000)"
fill="#000000" stroke="none">
<path d="M383 986 c-181 -44 -334 -202 -372 -384 -65 -310 179 -605 497 -601
270 2 494 234 491 507 -3 314 -310 552 -616 478z m232 -21 c172 -45 305 -179
350 -352 65 -249 -94 -511 -350 -578 -251 -65 -513 94 -580 350 -89 343 237
669 580 580z"/>
<path d="M470 635 c-12 -14 -6 -23 41 -71 l53 -54 -52 -53 c-54 -54 -62 -71
-38 -80 8 -3 42 24 82 64 l69 69 -71 71 c-63 63 -72 69 -84 54z"/>
</g>
</svg>
